# xmcd
#
# Track frame offsets:
#	150
#	13985
#	28364
#	42899
#	56171
#	70096
#	80843
#	94107
#	105880
#	118144
#	132279
#	143936
#	156520
#	167769
#	179839
#	191918
#	205631
#	217677
#	230314
#	242424
#	256080
#	267674
#
# Disc length: 3722 seconds
#
# Revision: 0
# Processed by: cddbd v1.4PL0 Copyright (c) Steve Scherf et al.
# Submitted via: dBpowerAMP V4.0
#
DISCID=440e8816
DTITLE=Johnny Otis and The R&B Caravan - Vol.1 - 1945/50
DYEAR=1900
DGENRE=Blues
TTITLE0=My Baby's Business
TTITLE1=Jimmy's Round-the-Clock Blues
TTITLE2=Alimony Boogie
TTITLE3=The Jelly Roll
TTITLE4=Midnight In The Barrelhouse
TTITLE5=What's Your Name
TTITLE6=I Gotta Guy
TTITLE7=Boogie Guitar
TTITLE8=I'm Not Falling In Love With You
TTITLE9=If It's So Baby
TTITLE10=Our Romance Is Gone
TTITLE11=Double Crossing Blues
TTITLE12=Little Red Hen
TTITLE13=Going To See My Baby
TTITLE14=New Orleans Shuffle
TTITLE15=Cry Baby
TTITLE16=Lover's Lane Boogie
TTITLE17=Blues Nocturne
TTITLE18=You're Fine But Not My Kind
TTITLE19=Mistrustin' Blues
TTITLE20=Dreamin' Blues
TTITLE21=Cupid's Boogie
EXTD=
EXTT0=
EXTT1=
EXTT2=
EXTT3=
EXTT4=
EXTT5=
EXTT6=
EXTT7=
EXTT8=
EXTT9=
EXTT10=
EXTT11=
EXTT12=
EXTT13=
EXTT14=
EXTT15=
EXTT16=
EXTT17=
EXTT18=
EXTT19=
EXTT20=
EXTT21=
PLAYORDER=
